<svg width="401" height="290" viewBox="0 0 401 290" fill="none" xmlns="http://www.w3.org/2000/svg">
<g clip-path="url(#clip0_2023_1372)">
<path d="M48.3477 244.109H379.408" stroke="#F0F0F0" stroke-dasharray="4 2"/>
<path d="M48.3477 201.689H379.408" stroke="#F0F0F0" stroke-dasharray="4 2"/>
<path d="M48.3477 158.497H379.408" stroke="#F0F0F0" stroke-dasharray="4 2"/>
<path d="M48.3477 116.077H379.408" stroke="#F0F0F0" stroke-dasharray="4 2"/>
<path d="M48.3477 73.6569H379.408" stroke="#F0F0F0" stroke-dasharray="4 2"/>
<path d="M48.3477 31.2367H379.408" stroke="#F0F0F0" stroke-dasharray="4 2"/>
<path d="M48.3477 244.109H379.408" stroke="#F0F0F0" stroke-linecap="round"/>
<path d="M72.103 243.723V247.58" stroke="#D9D9D9"/>
<path d="M119.143 243.723V247.58" stroke="#D9D9D9"/>
<path d="M166.955 243.723V247.58" stroke="#D9D9D9"/>
<path d="M213.995 243.723V247.58" stroke="#D9D9D9"/>
<path d="M261.036 243.723V247.58" stroke="#D9D9D9"/>
<path d="M308.847 243.723V247.58" stroke="#D9D9D9"/>
<path d="M355.888 243.723V247.58" stroke="#D9D9D9"/>
<path d="M25.3935 26.2727V35H24.3366V27.3807H24.2855L22.1548 28.7955V27.7216L24.3366 26.2727H25.3935ZM30.75 35.1193C30.108 35.1193 29.5611 34.9446 29.1094 34.5952C28.6577 34.2429 28.3125 33.733 28.0739 33.0653C27.8352 32.3949 27.7159 31.5852 27.7159 30.6364C27.7159 29.6932 27.8352 28.8878 28.0739 28.2202C28.3153 27.5497 28.6619 27.0384 29.1136 26.6861C29.5682 26.331 30.1136 26.1534 30.75 26.1534C31.3864 26.1534 31.9304 26.331 32.3821 26.6861C32.8366 27.0384 33.1832 27.5497 33.4219 28.2202C33.6634 28.8878 33.7841 29.6932 33.7841 30.6364C33.7841 31.5852 33.6648 32.3949 33.4261 33.0653C33.1875 33.733 32.8423 34.2429 32.3906 34.5952C31.9389 34.9446 31.392 35.1193 30.75 35.1193ZM30.75 34.1818C31.3864 34.1818 31.8807 33.875 32.233 33.2614C32.5852 32.6477 32.7614 31.7727 32.7614 30.6364C32.7614 29.8807 32.6804 29.2372 32.5185 28.706C32.3594 28.1747 32.1293 27.7699 31.8281 27.4915C31.5298 27.2131 31.1705 27.0739 30.75 27.0739C30.1193 27.0739 29.6264 27.3849 29.2713 28.0071C28.9162 28.6264 28.7386 29.5028 28.7386 30.6364C28.7386 31.392 28.8182 32.0341 28.9773 32.5625C29.1364 33.0909 29.3651 33.4929 29.6634 33.7685C29.9645 34.044 30.3267 34.1818 30.75 34.1818ZM38.25 35.1193C37.608 35.1193 37.0611 34.9446 36.6094 34.5952C36.1577 34.2429 35.8125 33.733 35.5739 33.0653C35.3352 32.3949 35.2159 31.5852 35.2159 30.6364C35.2159 29.6932 35.3352 28.8878 35.5739 28.2202C35.8153 27.5497 36.1619 27.0384 36.6136 26.6861C37.0682 26.331 37.6136 26.1534 38.25 26.1534C38.8864 26.1534 39.4304 26.331 39.8821 26.6861C40.3366 27.0384 40.6832 27.5497 40.9219 28.2202C41.1634 28.8878 41.2841 29.6932 41.2841 30.6364C41.2841 31.5852 41.1648 32.3949 40.9261 33.0653C40.6875 33.733 40.3423 34.2429 39.8906 34.5952C39.4389 34.9446 38.892 35.1193 38.25 35.1193ZM38.25 34.1818C38.8864 34.1818 39.3807 33.875 39.733 33.2614C40.0852 32.6477 40.2614 31.7727 40.2614 30.6364C40.2614 29.8807 40.1804 29.2372 40.0185 28.706C39.8594 28.1747 39.6293 27.7699 39.3281 27.4915C39.0298 27.2131 38.6705 27.0739 38.25 27.0739C37.6193 27.0739 37.1264 27.3849 36.7713 28.0071C36.4162 28.6264 36.2386 29.5028 36.2386 30.6364C36.2386 31.392 36.3182 32.0341 36.4773 32.5625C36.6364 33.0909 36.8651 33.4929 37.1634 33.7685C37.4645 34.044 37.8267 34.1818 38.25 34.1818Z" fill="#8C8C8C"/>
<path d="M30.8043 77.1193C30.2191 77.1193 29.7021 77.0156 29.2532 76.8082C28.8072 76.598 28.4592 76.3097 28.2092 75.9432C27.9592 75.5739 27.8356 75.1534 27.8384 74.6818C27.8356 74.3125 27.908 73.9716 28.0558 73.6591C28.2035 73.3437 28.4052 73.081 28.6609 72.8707C28.9194 72.6577 29.2077 72.5227 29.5259 72.4659V72.4148C29.1083 72.3068 28.7759 72.0724 28.5288 71.7116C28.2816 71.348 28.1594 70.9347 28.1623 70.4716C28.1594 70.0284 28.2717 69.6321 28.4989 69.2827C28.7262 68.9332 29.0387 68.6577 29.4364 68.456C29.837 68.2543 30.293 68.1534 30.8043 68.1534C31.31 68.1534 31.7617 68.2543 32.1594 68.456C32.5572 68.6577 32.8697 68.9332 33.0969 69.2827C33.3271 69.6321 33.4435 70.0284 33.4464 70.4716C33.4435 70.9347 33.3171 71.348 33.0671 71.7116C32.82 72.0724 32.4918 72.3068 32.0827 72.4148V72.4659C32.3981 72.5227 32.6822 72.6577 32.935 72.8707C33.1879 73.081 33.3896 73.3437 33.5401 73.6591C33.6907 73.9716 33.7674 74.3125 33.7702 74.6818C33.7674 75.1534 33.6396 75.5739 33.3867 75.9432C33.1367 76.3097 32.7887 76.598 32.3427 76.8082C31.8995 77.0156 31.3867 77.1193 30.8043 77.1193ZM30.8043 76.1818C31.1992 76.1818 31.5401 76.1179 31.8271 75.9901C32.114 75.8622 32.3356 75.6818 32.4918 75.4489C32.6481 75.2159 32.7276 74.9432 32.7305 74.6307C32.7276 74.3011 32.6424 74.0099 32.4748 73.7571C32.3072 73.5043 32.0785 73.3054 31.7887 73.1605C31.5018 73.0156 31.1737 72.9432 30.8043 72.9432C30.4322 72.9432 30.0998 73.0156 29.8072 73.1605C29.5174 73.3054 29.2887 73.5043 29.1211 73.7571C28.9563 74.0099 28.8754 74.3011 28.8782 74.6307C28.8754 74.9432 28.9506 75.2159 29.104 75.4489C29.2603 75.6818 29.4833 75.8622 29.7731 75.9901C30.0629 76.1179 30.4066 76.1818 30.8043 76.1818ZM30.8043 72.0398C31.1168 72.0398 31.3938 71.9773 31.6353 71.8523C31.8796 71.7273 32.0714 71.5526 32.2106 71.3281C32.3498 71.1037 32.4208 70.8409 32.4237 70.5398C32.4208 70.2443 32.3512 69.9872 32.2148 69.7685C32.0785 69.5469 31.8896 69.3764 31.6481 69.2571C31.4066 69.1349 31.1254 69.0739 30.8043 69.0739C30.4776 69.0739 30.1921 69.1349 29.9478 69.2571C29.7035 69.3764 29.5146 69.5469 29.381 69.7685C29.2475 69.9872 29.1822 70.2443 29.185 70.5398C29.1822 70.8409 29.2489 71.1037 29.3853 71.3281C29.5245 71.5526 29.7163 71.7273 29.9606 71.8523C30.2049 71.9773 30.4862 72.0398 30.8043 72.0398ZM38.25 77.1193C37.608 77.1193 37.0611 76.9446 36.6094 76.5952C36.1577 76.2429 35.8125 75.733 35.5739 75.0653C35.3352 74.3949 35.2159 73.5852 35.2159 72.6364C35.2159 71.6932 35.3352 70.8878 35.5739 70.2202C35.8153 69.5497 36.1619 69.0384 36.6136 68.6861C37.0682 68.331 37.6136 68.1534 38.25 68.1534C38.8864 68.1534 39.4304 68.331 39.8821 68.6861C40.3366 69.0384 40.6832 69.5497 40.9219 70.2202C41.1634 70.8878 41.2841 71.6932 41.2841 72.6364C41.2841 73.5852 41.1648 74.3949 40.9261 75.0653C40.6875 75.733 40.3423 76.2429 39.8906 76.5952C39.4389 76.9446 38.892 77.1193 38.25 77.1193ZM38.25 76.1818C38.8864 76.1818 39.3807 75.875 39.733 75.2614C40.0852 74.6477 40.2614 73.7727 40.2614 72.6364C40.2614 71.8807 40.1804 71.2372 40.0185 70.706C39.8594 70.1747 39.6293 69.7699 39.3281 69.4915C39.0298 69.2131 38.6705 69.0739 38.25 69.0739C37.6193 69.0739 37.1264 69.3849 36.7713 70.0071C36.4162 70.6264 36.2386 71.5028 36.2386 72.6364C36.2386 73.392 36.3182 74.0341 36.4773 74.5625C36.6364 75.0909 36.8651 75.4929 37.1634 75.7685C37.4645 76.044 37.8267 76.1818 38.25 76.1818Z" fill="#8C8C8C"/>
<path d="M30.8129 119.119C30.4549 119.114 30.0969 119.045 29.739 118.915C29.381 118.784 29.0543 118.564 28.7589 118.254C28.4634 117.942 28.2262 117.52 28.0472 116.989C27.8683 116.455 27.7788 115.784 27.7788 114.977C27.7788 114.205 27.8512 113.52 27.9961 112.923C28.141 112.324 28.3512 111.82 28.6268 111.411C28.9023 110.999 29.2347 110.686 29.6239 110.473C30.016 110.26 30.4577 110.153 30.9492 110.153C31.4379 110.153 31.8725 110.251 32.2532 110.447C32.6367 110.641 32.9492 110.911 33.1907 111.257C33.4322 111.604 33.5884 112.003 33.6594 112.455H32.6197C32.5231 112.062 32.3356 111.737 32.0572 111.479C31.7788 111.22 31.4094 111.091 30.9492 111.091C30.2731 111.091 29.7404 111.385 29.3512 111.973C28.9648 112.561 28.7702 113.386 28.7674 114.449H28.8356C28.9947 114.207 29.1836 114.001 29.4023 113.831C29.6239 113.658 29.8683 113.524 30.1353 113.43C30.4023 113.337 30.685 113.29 30.9833 113.29C31.4833 113.29 31.9407 113.415 32.3555 113.665C32.7702 113.912 33.1026 114.254 33.3526 114.692C33.6026 115.126 33.7276 115.625 33.7276 116.188C33.7276 116.727 33.6069 117.222 33.3654 117.67C33.1239 118.116 32.7844 118.472 32.3469 118.736C31.9123 118.997 31.4009 119.125 30.8129 119.119ZM30.8129 118.182C31.1708 118.182 31.4918 118.092 31.7759 117.913C32.0629 117.734 32.2887 117.494 32.4535 117.193C32.6211 116.892 32.7049 116.557 32.7049 116.188C32.7049 115.827 32.6239 115.499 32.462 115.203C32.3029 114.905 32.0827 114.668 31.8015 114.491C31.5231 114.315 31.2049 114.227 30.8469 114.227C30.5771 114.227 30.3256 114.281 30.0927 114.389C29.8597 114.494 29.6552 114.639 29.479 114.824C29.3058 115.009 29.1694 115.22 29.07 115.459C28.9705 115.695 28.9208 115.943 28.9208 116.205C28.9208 116.551 29.0018 116.875 29.1637 117.176C29.3285 117.477 29.5529 117.72 29.837 117.905C30.1239 118.089 30.4492 118.182 30.8129 118.182ZM38.25 119.119C37.608 119.119 37.0611 118.945 36.6094 118.595C36.1577 118.243 35.8125 117.733 35.5739 117.065C35.3352 116.395 35.2159 115.585 35.2159 114.636C35.2159 113.693 35.3352 112.888 35.5739 112.22C35.8153 111.55 36.1619 111.038 36.6136 110.686C37.0682 110.331 37.6136 110.153 38.25 110.153C38.8864 110.153 39.4304 110.331 39.8821 110.686C40.3366 111.038 40.6832 111.55 40.9219 112.22C41.1634 112.888 41.2841 113.693 41.2841 114.636C41.2841 115.585 41.1648 116.395 40.9261 117.065C40.6875 117.733 40.3423 118.243 39.8906 118.595C39.4389 118.945 38.892 119.119 38.25 119.119ZM38.25 118.182C38.8864 118.182 39.3807 117.875 39.733 117.261C40.0852 116.648 40.2614 115.773 40.2614 114.636C40.2614 113.881 40.1804 113.237 40.0185 112.706C39.8594 112.175 39.6293 111.77 39.3281 111.491C39.0298 111.213 38.6705 111.074 38.25 111.074C37.6193 111.074 37.1264 111.385 36.7713 112.007C36.4162 112.626 36.2386 113.503 36.2386 114.636C36.2386 115.392 36.3182 116.034 36.4773 116.562C36.6364 117.091 36.8651 117.493 37.1634 117.768C37.4645 118.044 37.8267 118.182 38.25 118.182Z" fill="#8C8C8C"/>
<path d="M27.4996 159.21V158.341L31.3349 152.273H31.9656V153.619H31.5394L28.6417 158.205V158.273H33.8065V159.21H27.4996ZM31.6076 161V158.946V158.541V152.273H32.6133V161H31.6076ZM38.25 161.119C37.608 161.119 37.0611 160.945 36.6094 160.595C36.1577 160.243 35.8125 159.733 35.5739 159.065C35.3352 158.395 35.2159 157.585 35.2159 156.636C35.2159 155.693 35.3352 154.888 35.5739 154.22C35.8153 153.55 36.1619 153.038 36.6136 152.686C37.0682 152.331 37.6136 152.153 38.25 152.153C38.8864 152.153 39.4304 152.331 39.8821 152.686C40.3366 153.038 40.6832 153.55 40.9219 154.22C41.1634 154.888 41.2841 155.693 41.2841 156.636C41.2841 157.585 41.1648 158.395 40.9261 159.065C40.6875 159.733 40.3423 160.243 39.8906 160.595C39.4389 160.945 38.892 161.119 38.25 161.119ZM38.25 160.182C38.8864 160.182 39.3807 159.875 39.733 159.261C40.0852 158.648 40.2614 157.773 40.2614 156.636C40.2614 155.881 40.1804 155.237 40.0185 154.706C39.8594 154.175 39.6293 153.77 39.3281 153.491C39.0298 153.213 38.6705 153.074 38.25 153.074C37.6193 153.074 37.1264 153.385 36.7713 154.007C36.4162 154.626 36.2386 155.503 36.2386 156.636C36.2386 157.392 36.3182 158.034 36.4773 158.562C36.6364 159.091 36.8651 159.493 37.1634 159.768C37.4645 160.044 37.8267 160.182 38.25 160.182Z" fill="#8C8C8C"/>
<path d="M28.1378 203V202.233L31.0185 199.08C31.3565 198.71 31.6349 198.389 31.8537 198.116C32.0724 197.841 32.2344 197.582 32.3395 197.341C32.4474 197.097 32.5014 196.841 32.5014 196.574C32.5014 196.267 32.4276 196.001 32.2798 195.777C32.1349 195.553 31.9361 195.379 31.6832 195.257C31.4304 195.135 31.1463 195.074 30.831 195.074C30.4957 195.074 30.2031 195.143 29.9531 195.283C29.706 195.419 29.5142 195.611 29.3778 195.858C29.2443 196.105 29.1776 196.395 29.1776 196.727H28.1719C28.1719 196.216 28.2898 195.767 28.5256 195.381C28.7614 194.994 29.0824 194.693 29.4886 194.477C29.8977 194.261 30.3565 194.153 30.8651 194.153C31.3764 194.153 31.8295 194.261 32.2244 194.477C32.6193 194.693 32.929 194.984 33.1534 195.351C33.3778 195.717 33.4901 196.125 33.4901 196.574C33.4901 196.895 33.4318 197.209 33.3153 197.516C33.2017 197.82 33.0028 198.159 32.7188 198.534C32.4375 198.906 32.0469 199.361 31.5469 199.898L29.5866 201.994V202.062H33.6435V203H28.1378ZM38.25 203.119C37.608 203.119 37.0611 202.945 36.6094 202.595C36.1577 202.243 35.8125 201.733 35.5739 201.065C35.3352 200.395 35.2159 199.585 35.2159 198.636C35.2159 197.693 35.3352 196.888 35.5739 196.22C35.8153 195.55 36.1619 195.038 36.6136 194.686C37.0682 194.331 37.6136 194.153 38.25 194.153C38.8864 194.153 39.4304 194.331 39.8821 194.686C40.3366 195.038 40.6832 195.55 40.9219 196.22C41.1634 196.888 41.2841 197.693 41.2841 198.636C41.2841 199.585 41.1648 200.395 40.9261 201.065C40.6875 201.733 40.3423 202.243 39.8906 202.595C39.4389 202.945 38.892 203.119 38.25 203.119ZM38.25 202.182C38.8864 202.182 39.3807 201.875 39.733 201.261C40.0852 200.648 40.2614 199.773 40.2614 198.636C40.2614 197.881 40.1804 197.237 40.0185 196.706C39.8594 196.175 39.6293 195.77 39.3281 195.491C39.0298 195.213 38.6705 195.074 38.25 195.074C37.6193 195.074 37.1264 195.385 36.7713 196.007C36.4162 196.626 36.2386 197.503 36.2386 198.636C36.2386 199.392 36.3182 200.034 36.4773 200.562C36.6364 201.091 36.8651 201.493 37.1634 201.768C37.4645 202.044 37.8267 202.182 38.25 202.182Z" fill="#8C8C8C"/>
<path d="M38.25 245.119C37.608 245.119 37.0611 244.945 36.6094 244.595C36.1577 244.243 35.8125 243.733 35.5739 243.065C35.3352 242.395 35.2159 241.585 35.2159 240.636C35.2159 239.693 35.3352 238.888 35.5739 238.22C35.8153 237.55 36.1619 237.038 36.6136 236.686C37.0682 236.331 37.6136 236.153 38.25 236.153C38.8864 236.153 39.4304 236.331 39.8821 236.686C40.3366 237.038 40.6832 237.55 40.9219 238.22C41.1634 238.888 41.2841 239.693 41.2841 240.636C41.2841 241.585 41.1648 242.395 40.9261 243.065C40.6875 243.733 40.3423 244.243 39.8906 244.595C39.4389 244.945 38.892 245.119 38.25 245.119ZM38.25 244.182C38.8864 244.182 39.3807 243.875 39.733 243.261C40.0852 242.648 40.2614 241.773 40.2614 240.636C40.2614 239.881 40.1804 239.237 40.0185 238.706C39.8594 238.175 39.6293 237.77 39.3281 237.491C39.0298 237.213 38.6705 237.074 38.25 237.074C37.6193 237.074 37.1264 237.385 36.7713 238.007C36.4162 238.626 36.2386 239.503 36.2386 240.636C36.2386 241.392 36.3182 242.034 36.4773 242.562C36.6364 243.091 36.8651 243.493 37.1634 243.768C37.4645 244.044 37.8267 244.182 38.25 244.182Z" fill="#8C8C8C"/>
<path d="M61.1009 251.273H62.1577V257.511C62.1577 258.068 62.0554 258.541 61.8509 258.93C61.6463 259.32 61.358 259.615 60.9858 259.817C60.6136 260.018 60.1747 260.119 59.669 260.119C59.1918 260.119 58.767 260.033 58.3949 259.859C58.0227 259.683 57.7301 259.433 57.517 259.109C57.304 258.786 57.1974 258.401 57.1974 257.955H58.2372C58.2372 258.202 58.2983 258.418 58.4205 258.602C58.5455 258.784 58.7159 258.926 58.9318 259.028C59.1477 259.131 59.3935 259.182 59.669 259.182C59.973 259.182 60.2315 259.118 60.4446 258.99C60.6577 258.862 60.8196 258.675 60.9304 258.428C61.044 258.178 61.1009 257.872 61.1009 257.511V251.273ZM66.0653 260.153C65.6506 260.153 65.2741 260.075 64.9361 259.919C64.598 259.76 64.3295 259.531 64.1307 259.233C63.9318 258.932 63.8324 258.568 63.8324 258.142C63.8324 257.767 63.9063 257.463 64.054 257.23C64.2017 256.994 64.3991 256.81 64.6463 256.676C64.8935 256.543 65.1662 256.443 65.4645 256.378C65.7656 256.31 66.0682 256.256 66.3722 256.216C66.7699 256.165 67.0923 256.126 67.3395 256.101C67.5895 256.072 67.7713 256.026 67.8849 255.96C68.0014 255.895 68.0597 255.781 68.0597 255.619V255.585C68.0597 255.165 67.9446 254.838 67.7145 254.605C67.4872 254.372 67.142 254.256 66.679 254.256C66.1989 254.256 65.8224 254.361 65.5497 254.571C65.277 254.781 65.0852 255.006 64.9744 255.244L64.0199 254.903C64.1903 254.506 64.4176 254.196 64.7017 253.974C64.9886 253.75 65.3011 253.594 65.6392 253.506C65.9801 253.415 66.3153 253.369 66.6449 253.369C66.8551 253.369 67.0966 253.395 67.3693 253.446C67.6449 253.494 67.9105 253.595 68.1662 253.749C68.4247 253.902 68.6392 254.134 68.8097 254.443C68.9801 254.753 69.0653 255.168 69.0653 255.688V260H68.0597V259.114H68.0085C67.9403 259.256 67.8267 259.408 67.6676 259.57C67.5085 259.732 67.2969 259.869 67.0327 259.983C66.7685 260.097 66.446 260.153 66.0653 260.153ZM66.2188 259.25C66.6165 259.25 66.9517 259.172 67.2244 259.016C67.5 258.859 67.7074 258.658 67.8466 258.411C67.9886 258.163 68.0597 257.903 68.0597 257.631V256.71C68.017 256.761 67.9233 256.808 67.7784 256.851C67.6364 256.891 67.4716 256.926 67.2841 256.957C67.0994 256.986 66.919 257.011 66.7429 257.034C66.5696 257.054 66.429 257.071 66.321 257.085C66.0597 257.119 65.8153 257.175 65.5881 257.251C65.3636 257.325 65.1818 257.437 65.0426 257.588C64.9063 257.736 64.8381 257.937 64.8381 258.193C64.8381 258.543 64.9673 258.807 65.2259 258.986C65.4872 259.162 65.8182 259.25 66.2188 259.25ZM71.9066 256.062V260H70.9009V253.455H71.8725V254.477H71.9577C72.1112 254.145 72.3441 253.878 72.6566 253.676C72.9691 253.472 73.3725 253.369 73.8668 253.369C74.31 253.369 74.6978 253.46 75.0302 253.642C75.3626 253.821 75.6211 254.094 75.8058 254.46C75.9904 254.824 76.0827 255.284 76.0827 255.841V260H75.0771V255.909C75.0771 255.395 74.9435 254.994 74.6765 254.707C74.4094 254.418 74.043 254.273 73.5771 254.273C73.256 254.273 72.9691 254.342 72.7163 254.482C72.4663 254.621 72.2688 254.824 72.1239 255.091C71.979 255.358 71.9066 255.682 71.9066 256.062Z" fill="#8C8C8C"/>
<path d="M107.057 260V251.273H112.29V252.21H108.114V255.159H111.898V256.097H108.114V260H107.057ZM116.227 260.136C115.597 260.136 115.053 259.997 114.595 259.719C114.141 259.438 113.79 259.045 113.543 258.543C113.298 258.037 113.176 257.449 113.176 256.778C113.176 256.108 113.298 255.517 113.543 255.006C113.79 254.491 114.134 254.091 114.574 253.804C115.017 253.514 115.534 253.369 116.125 253.369C116.466 253.369 116.803 253.426 117.135 253.54C117.467 253.653 117.77 253.838 118.043 254.094C118.315 254.347 118.533 254.682 118.695 255.099C118.857 255.517 118.938 256.031 118.938 256.642V257.068H113.892V256.199H117.915C117.915 255.83 117.841 255.5 117.693 255.21C117.548 254.92 117.341 254.692 117.071 254.524C116.804 254.357 116.489 254.273 116.125 254.273C115.724 254.273 115.378 254.372 115.085 254.571C114.795 254.767 114.572 255.023 114.416 255.338C114.26 255.653 114.182 255.991 114.182 256.352V256.932C114.182 257.426 114.267 257.845 114.438 258.189C114.611 258.53 114.851 258.79 115.158 258.969C115.464 259.145 115.821 259.233 116.227 259.233C116.491 259.233 116.73 259.196 116.943 259.122C117.159 259.045 117.345 258.932 117.501 258.781C117.658 258.628 117.778 258.437 117.864 258.21L118.835 258.483C118.733 258.812 118.561 259.102 118.32 259.352C118.078 259.599 117.78 259.793 117.425 259.932C117.07 260.068 116.67 260.136 116.227 260.136ZM120.604 260V251.273H121.609V254.494H121.695C121.768 254.381 121.871 254.236 122.001 254.06C122.135 253.881 122.325 253.722 122.572 253.582C122.822 253.44 123.161 253.369 123.587 253.369C124.138 253.369 124.624 253.507 125.044 253.783C125.464 254.058 125.793 254.449 126.028 254.955C126.264 255.46 126.382 256.057 126.382 256.744C126.382 257.438 126.264 258.038 126.028 258.547C125.793 259.053 125.466 259.445 125.048 259.723C124.631 259.999 124.149 260.136 123.604 260.136C123.183 260.136 122.847 260.067 122.594 259.928C122.341 259.786 122.146 259.625 122.01 259.446C121.874 259.264 121.768 259.114 121.695 258.994H121.575V260H120.604ZM121.592 256.727C121.592 257.222 121.665 257.658 121.81 258.036C121.955 258.411 122.166 258.705 122.445 258.918C122.723 259.128 123.064 259.233 123.467 259.233C123.888 259.233 124.239 259.122 124.52 258.901C124.804 258.676 125.017 258.375 125.159 257.997C125.304 257.616 125.376 257.193 125.376 256.727C125.376 256.267 125.305 255.852 125.163 255.483C125.024 255.111 124.813 254.817 124.528 254.601C124.247 254.382 123.893 254.273 123.467 254.273C123.058 254.273 122.714 254.376 122.436 254.584C122.158 254.788 121.947 255.075 121.805 255.445C121.663 255.811 121.592 256.239 121.592 256.727Z" fill="#8C8C8C"/>
<path d="M163.154 251.273H164.416L167.382 258.517H167.484L170.45 251.273H171.711V260H170.723V253.369H170.637L167.91 260H166.956L164.228 253.369H164.143V260H163.154V251.273ZM175.62 260.153C175.205 260.153 174.829 260.075 174.491 259.919C174.153 259.76 173.884 259.531 173.685 259.233C173.487 258.932 173.387 258.568 173.387 258.142C173.387 257.767 173.461 257.463 173.609 257.23C173.756 256.994 173.954 256.81 174.201 256.676C174.448 256.543 174.721 256.443 175.019 256.378C175.32 256.31 175.623 256.256 175.927 256.216C176.325 256.165 176.647 256.126 176.894 256.101C177.144 256.072 177.326 256.026 177.44 255.96C177.556 255.895 177.614 255.781 177.614 255.619V255.585C177.614 255.165 177.499 254.838 177.269 254.605C177.042 254.372 176.697 254.256 176.234 254.256C175.754 254.256 175.377 254.361 175.104 254.571C174.832 254.781 174.64 255.006 174.529 255.244L173.575 254.903C173.745 254.506 173.972 254.196 174.256 253.974C174.543 253.75 174.856 253.594 175.194 253.506C175.535 253.415 175.87 253.369 176.2 253.369C176.41 253.369 176.651 253.395 176.924 253.446C177.2 253.494 177.465 253.595 177.721 253.749C177.979 253.902 178.194 254.134 178.364 254.443C178.535 254.753 178.62 255.168 178.62 255.688V260H177.614V259.114H177.563C177.495 259.256 177.381 259.408 177.222 259.57C177.063 259.732 176.852 259.869 176.587 259.983C176.323 260.097 176.001 260.153 175.62 260.153ZM175.773 259.25C176.171 259.25 176.506 259.172 176.779 259.016C177.055 258.859 177.262 258.658 177.401 258.411C177.543 258.163 177.614 257.903 177.614 257.631V256.71C177.572 256.761 177.478 256.808 177.333 256.851C177.191 256.891 177.026 256.926 176.839 256.957C176.654 256.986 176.474 257.011 176.298 257.034C176.124 257.054 175.984 257.071 175.876 257.085C175.614 257.119 175.37 257.175 175.143 257.251C174.918 257.325 174.737 257.437 174.597 257.588C174.461 257.736 174.393 257.937 174.393 258.193C174.393 258.543 174.522 258.807 174.781 258.986C175.042 259.162 175.373 259.25 175.773 259.25ZM180.456 260V253.455H181.427V254.443H181.495C181.615 254.119 181.831 253.857 182.143 253.655C182.456 253.453 182.808 253.352 183.2 253.352C183.274 253.352 183.366 253.354 183.477 253.357C183.588 253.359 183.672 253.364 183.728 253.369V254.392C183.694 254.384 183.616 254.371 183.494 254.354C183.375 254.334 183.248 254.324 183.115 254.324C182.797 254.324 182.512 254.391 182.262 254.524C182.015 254.655 181.819 254.837 181.674 255.07C181.532 255.3 181.461 255.562 181.461 255.858V260H180.456Z" fill="#8C8C8C"/>
<path d="M212.528 260H211.42L214.625 251.273H215.716L218.92 260H217.812L215.204 252.653H215.136L212.528 260ZM212.937 256.591H217.403V257.528H212.937V256.591ZM220.143 262.455V253.455H221.115V254.494H221.234C221.308 254.381 221.41 254.236 221.541 254.06C221.674 253.881 221.865 253.722 222.112 253.582C222.362 253.44 222.7 253.369 223.126 253.369C223.677 253.369 224.163 253.507 224.583 253.783C225.004 254.058 225.332 254.449 225.568 254.955C225.804 255.46 225.922 256.057 225.922 256.744C225.922 257.438 225.804 258.038 225.568 258.547C225.332 259.053 225.005 259.445 224.588 259.723C224.17 259.999 223.689 260.136 223.143 260.136C222.723 260.136 222.386 260.067 222.133 259.928C221.88 259.786 221.686 259.625 221.549 259.446C221.413 259.264 221.308 259.114 221.234 258.994H221.149V262.455H220.143ZM221.132 256.727C221.132 257.222 221.204 257.658 221.349 258.036C221.494 258.411 221.706 258.705 221.984 258.918C222.262 259.128 222.603 259.233 223.007 259.233C223.427 259.233 223.778 259.122 224.059 258.901C224.343 258.676 224.556 258.375 224.699 257.997C224.843 257.616 224.916 257.193 224.916 256.727C224.916 256.267 224.845 255.852 224.703 255.483C224.564 255.111 224.352 254.817 224.068 254.601C223.787 254.382 223.433 254.273 223.007 254.273C222.598 254.273 222.254 254.376 221.975 254.584C221.697 254.788 221.487 255.075 221.345 255.445C221.203 255.811 221.132 256.239 221.132 256.727ZM227.456 260V253.455H228.427V254.443H228.495C228.615 254.119 228.831 253.857 229.143 253.655C229.456 253.453 229.808 253.352 230.2 253.352C230.274 253.352 230.366 253.354 230.477 253.357C230.588 253.359 230.672 253.364 230.728 253.369V254.392C230.694 254.384 230.616 254.371 230.494 254.354C230.375 254.334 230.248 254.324 230.115 254.324C229.797 254.324 229.512 254.391 229.262 254.524C229.015 254.655 228.819 254.837 228.674 255.07C228.532 255.3 228.461 255.562 228.461 255.858V260H227.456Z" fill="#8C8C8C"/>
<path d="M256.174 252.273H257.435L260.401 259.517H260.504L263.469 252.273H264.731V261H263.742V254.369H263.657L260.93 261H259.975L257.248 254.369H257.163V261H256.174V252.273ZM268.64 261.153C268.225 261.153 267.848 261.075 267.51 260.919C267.172 260.76 266.904 260.531 266.705 260.233C266.506 259.932 266.407 259.568 266.407 259.142C266.407 258.767 266.48 258.463 266.628 258.23C266.776 257.994 266.973 257.81 267.221 257.676C267.468 257.543 267.74 257.443 268.039 257.378C268.34 257.31 268.642 257.256 268.946 257.216C269.344 257.165 269.667 257.126 269.914 257.101C270.164 257.072 270.346 257.026 270.459 256.96C270.576 256.895 270.634 256.781 270.634 256.619V256.585C270.634 256.165 270.519 255.838 270.289 255.605C270.061 255.372 269.716 255.256 269.253 255.256C268.773 255.256 268.397 255.361 268.124 255.571C267.851 255.781 267.659 256.006 267.549 256.244L266.594 255.903C266.765 255.506 266.992 255.196 267.276 254.974C267.563 254.75 267.875 254.594 268.213 254.506C268.554 254.415 268.89 254.369 269.219 254.369C269.429 254.369 269.671 254.395 269.944 254.446C270.219 254.494 270.485 254.595 270.74 254.749C270.999 254.902 271.213 255.134 271.384 255.443C271.554 255.753 271.64 256.168 271.64 256.688V261H270.634V260.114H270.583C270.515 260.256 270.401 260.408 270.242 260.57C270.083 260.732 269.871 260.869 269.607 260.983C269.343 261.097 269.02 261.153 268.64 261.153ZM268.793 260.25C269.191 260.25 269.526 260.172 269.799 260.016C270.074 259.859 270.282 259.658 270.421 259.411C270.563 259.163 270.634 258.903 270.634 258.631V257.71C270.591 257.761 270.498 257.808 270.353 257.851C270.211 257.891 270.046 257.926 269.858 257.957C269.674 257.986 269.493 258.011 269.317 258.034C269.144 258.054 269.003 258.071 268.895 258.085C268.634 258.119 268.39 258.175 268.162 258.251C267.938 258.325 267.756 258.437 267.617 258.588C267.48 258.736 267.412 258.937 267.412 259.193C267.412 259.543 267.542 259.807 267.8 259.986C268.061 260.162 268.392 260.25 268.793 260.25ZM273.888 263.455C273.718 263.455 273.566 263.44 273.433 263.412C273.299 263.386 273.207 263.361 273.156 263.335L273.411 262.449C273.656 262.511 273.871 262.534 274.059 262.517C274.246 262.5 274.413 262.416 274.558 262.266C274.705 262.118 274.84 261.878 274.962 261.545L275.15 261.034L272.729 254.455H273.82L275.627 259.67H275.695L277.502 254.455H278.593L275.815 261.955C275.69 262.293 275.535 262.572 275.35 262.794C275.165 263.018 274.951 263.185 274.707 263.293C274.465 263.401 274.192 263.455 273.888 263.455Z" fill="#8C8C8C"/>
<path d="M305.89 251.273H306.947V257.511C306.947 258.068 306.844 258.541 306.64 258.93C306.435 259.32 306.147 259.615 305.775 259.817C305.403 260.018 304.964 260.119 304.458 260.119C303.981 260.119 303.556 260.033 303.184 259.859C302.812 259.683 302.519 259.433 302.306 259.109C302.093 258.786 301.987 258.401 301.987 257.955H303.026C303.026 258.202 303.087 258.418 303.21 258.602C303.335 258.784 303.505 258.926 303.721 259.028C303.937 259.131 304.183 259.182 304.458 259.182C304.762 259.182 305.021 259.118 305.234 258.99C305.447 258.862 305.609 258.675 305.719 258.428C305.833 258.178 305.89 257.872 305.89 257.511V251.273ZM313.053 257.324V253.455H314.059V260H313.053V258.892H312.985C312.832 259.224 312.593 259.507 312.269 259.74C311.945 259.97 311.536 260.085 311.042 260.085C310.633 260.085 310.269 259.996 309.951 259.817C309.633 259.635 309.383 259.362 309.201 258.999C309.019 258.632 308.928 258.17 308.928 257.614V253.455H309.934V257.545C309.934 258.023 310.067 258.403 310.335 258.688C310.604 258.972 310.948 259.114 311.366 259.114C311.616 259.114 311.87 259.05 312.129 258.922C312.39 258.794 312.609 258.598 312.785 258.334C312.964 258.07 313.053 257.733 313.053 257.324ZM316.907 256.062V260H315.901V253.455H316.873V254.477H316.958C317.111 254.145 317.344 253.878 317.657 253.676C317.969 253.472 318.373 253.369 318.867 253.369C319.31 253.369 319.698 253.46 320.03 253.642C320.363 253.821 320.621 254.094 320.806 254.46C320.99 254.824 321.083 255.284 321.083 255.841V260H320.077V255.909C320.077 255.395 319.944 254.994 319.676 254.707C319.409 254.418 319.043 254.273 318.577 254.273C318.256 254.273 317.969 254.342 317.716 254.482C317.466 254.621 317.269 254.824 317.124 255.091C316.979 255.358 316.907 255.682 316.907 256.062Z" fill="#8C8C8C"/>
<path d="M354.062 251.273H355.119V257.511C355.119 258.068 355.016 258.541 354.812 258.93C354.607 259.32 354.319 259.615 353.947 259.817C353.575 260.018 353.136 260.119 352.63 260.119C352.153 260.119 351.728 260.033 351.356 259.859C350.984 259.683 350.691 259.433 350.478 259.109C350.265 258.786 350.158 258.401 350.158 257.955H351.198C351.198 258.202 351.259 258.418 351.381 258.602C351.506 258.784 351.677 258.926 351.893 259.028C352.109 259.131 352.354 259.182 352.63 259.182C352.934 259.182 353.192 259.118 353.406 258.99C353.619 258.862 353.781 258.675 353.891 258.428C354.005 258.178 354.062 257.872 354.062 257.511V251.273ZM361.225 257.324V253.455H362.231V260H361.225V258.892H361.157C361.004 259.224 360.765 259.507 360.441 259.74C360.117 259.97 359.708 260.085 359.214 260.085C358.805 260.085 358.441 259.996 358.123 259.817C357.805 259.635 357.555 259.362 357.373 258.999C357.191 258.632 357.1 258.17 357.1 257.614V253.455H358.106V257.545C358.106 258.023 358.239 258.403 358.506 258.688C358.776 258.972 359.12 259.114 359.538 259.114C359.788 259.114 360.042 259.05 360.3 258.922C360.562 258.794 360.781 258.598 360.957 258.334C361.136 258.07 361.225 257.733 361.225 257.324ZM365.078 251.273V260H364.073V251.273H365.078Z" fill="#8C8C8C"/>
<path d="M55.6782 243.723H88.3113V144.951H55.6782V243.723Z" fill="#FD6F00"/>
<path d="M102.973 243.723H135.606V118.767H102.973V243.723Z" fill="#FD6F00"/>
<path d="M150.267 243.723H182.9V90.2424H150.267V243.723Z" fill="#FD6F00"/>
<path d="M197.561 243.723H230.194V51.9254H197.561V243.723Z" fill="#FD6F00"/>
<path d="M244.855 243.723H277.489V91.5197H244.855V243.723Z" fill="#FD6F00"/>
<path d="M292.15 243.723H324.783V68.1038H292.15V243.723Z" fill="#FD6F00"/>
<path d="M339.444 243.723H372.077V135.797H339.444V243.723Z" fill="#FD6F00"/>
</g>
<defs>
<clipPath id="clip0_2023_1372">
<rect width="401" height="290" fill="white"/>
</clipPath>
</defs>
</svg>
