<svg width="97" height="97" viewBox="0 0 97 97" fill="none" xmlns="http://www.w3.org/2000/svg">
<g filter="url(#filter0_d_2073_59)">
<rect x="5" y="5" width="87" height="87" rx="8" fill="white"/>
<rect x="6" y="6" width="85" height="85" rx="7" stroke="#FD6F00" stroke-width="2"/>
</g>
<mask id="path-3-outside-1_2073_59" maskUnits="userSpaceOnUse" x="17" y="21" width="63" height="54" fill="black">
<rect fill="white" x="17" y="21" width="63" height="54"/>
<path d="M78.9134 27.0674V68.9313C78.8816 69.007 78.8339 69.0776 78.818 69.1566C78.2061 72.1661 76.105 73.9785 73.195 73.997C72.1444 74.0037 71.0939 73.997 70.0417 73.997C54.6363 73.997 39.2309 73.9987 23.8239 73.997C20.4275 73.997 18.007 71.5222 18.0038 68.0167C17.9974 54.669 17.9974 41.3247 18.0165 27.9803C18.0165 27.2994 18.1278 26.5916 18.3296 25.946C19.1052 23.4644 21.1761 22 23.8271 22C40.2433 22 56.6611 22 73.0773 22C73.2363 22 73.3952 22 73.5526 22.0067C75.7442 22.1261 77.3447 23.2357 78.3317 25.2953C78.5955 25.8468 78.7227 26.4722 78.9118 27.064L78.9134 27.0674ZM28.8764 71.4448C28.8764 68.9414 28.8764 66.5052 28.8764 64.069C28.8764 62.1574 28.8637 60.2441 28.8812 58.3325C28.8987 56.4646 30.0064 55.3096 31.7547 55.3045C33.0437 55.3012 34.3326 55.3028 35.62 55.3045C37.5287 55.3062 38.5952 56.436 38.5968 58.467C38.6 62.5441 38.5968 66.6195 38.5968 70.6967C38.5968 70.9404 38.5968 71.1842 38.5968 71.4415H42.1585C42.1585 71.1809 42.1585 70.9556 42.1585 70.7303C42.1585 68.5866 42.1553 66.443 42.1617 64.3011C42.1617 63.9883 42.1823 63.6706 42.23 63.3629C42.3937 62.2987 43.0199 61.569 43.8543 60.9957C42.8355 58.3998 41.8327 55.8442 40.8298 53.2903C39.9127 50.955 40.2322 49.42 41.9455 47.6749C44.0816 45.4993 46.0921 43.2144 47.4176 40.3546C47.6258 39.9057 47.9818 39.6652 48.4681 39.6652C48.9783 39.6652 49.3168 39.9258 49.5616 40.3882C49.97 41.1548 50.3133 41.9871 50.8394 42.6512C52.2762 44.4653 53.759 46.2441 55.2911 47.9691C56.5515 49.3881 56.9409 51.0727 56.2511 52.8868C55.8967 53.8199 55.5248 54.748 55.1624 55.6778C54.471 57.4582 53.7813 59.2387 53.082 61.036C54.3788 61.8531 54.7953 63.0737 54.7651 64.5768C54.7221 66.6347 54.7539 68.6943 54.7539 70.7538V71.4263H58.0868C58.0868 71.1472 58.0868 70.9186 58.0868 70.6882C58.0868 67.6619 58.055 64.6356 58.1122 61.611C58.1249 60.9822 58.322 60.229 58.6939 59.7666C59.1453 59.2051 59.2422 58.6704 59.2215 58.0097C59.1818 56.6832 59.7301 55.7198 60.8427 55.096C61.0016 55.0069 61.1558 54.7379 61.1637 54.5463C61.1987 53.7073 61.1717 52.8667 61.1812 52.026C61.1907 51.1921 61.6485 50.6575 62.3414 50.644C63.055 50.6306 63.5429 51.182 63.5557 52.0412C63.5684 52.8599 63.5747 53.6804 63.5509 54.4992C63.5414 54.8405 63.6383 55.017 63.9403 55.1616C64.7047 55.5281 65.2276 56.167 65.4025 57.0346C65.5121 57.581 65.4565 58.1627 65.5074 58.7259C65.5264 58.9361 65.5821 59.2 65.7156 59.3295C66.4133 60.0054 66.6612 60.8376 66.6564 61.8144C66.6406 64.7987 66.6517 67.7813 66.6517 70.7656C66.6517 70.9892 66.6517 71.2111 66.6517 71.4785C68.8497 71.4785 70.9667 71.4818 73.0853 71.4785C75.2452 71.4751 76.5325 70.1183 76.5325 67.8418C76.5341 58.4283 76.5325 49.0148 76.5325 39.5997C76.5325 39.3777 76.5325 39.1575 76.5325 38.9372H20.3814C20.3814 39.1928 20.3814 39.4181 20.3814 39.6434C20.3814 49.0148 20.3814 58.3863 20.3814 67.7595C20.3814 67.9696 20.3767 68.1798 20.391 68.3899C20.4911 69.9098 21.6338 71.3423 23.0404 71.4196C24.954 71.5255 26.8755 71.4465 28.8764 71.4465V71.4448ZM20.3894 36.3329H76.5246C76.5246 33.3856 76.5246 30.4854 76.523 27.5869C76.523 27.4827 76.5024 27.3784 76.4833 27.2759C76.1622 25.5425 74.9098 24.5219 73.0821 24.5219C56.6643 24.5219 40.2481 24.5219 23.8303 24.5219C23.6714 24.5219 23.5124 24.5219 23.3551 24.5303C21.8023 24.606 20.4387 25.9376 20.4053 27.5886C20.3481 30.4854 20.3894 33.3856 20.3894 36.3346V36.3329ZM47.2682 60.5888C47.2682 58.5528 47.2634 56.5386 47.2714 54.5261C47.2745 53.6602 47.7545 53.1239 48.4808 53.1373C49.1801 53.1491 49.6379 53.6754 49.6442 54.5126C49.6538 56.0241 49.6474 57.5373 49.6474 59.0487C49.6474 59.5682 49.6474 60.0894 49.6474 60.6981C50.0924 60.5501 50.5629 60.9318 50.8156 60.271C51.8852 57.4734 52.9818 54.6858 54.0626 51.8932C54.3757 51.0845 54.2167 50.3784 53.6191 49.7748C53.1169 49.267 52.5972 48.7761 52.1395 48.2263C50.8855 46.7199 49.6617 45.1866 48.4109 43.6465C48.4045 43.6549 48.333 43.7222 48.2806 43.8045C46.8947 45.9717 45.2227 47.8733 43.4299 49.6638C42.6432 50.449 42.5224 51.0357 42.9341 52.0865C43.9592 54.7009 45.0129 57.3019 45.9967 59.9331C46.251 60.6123 46.5864 60.809 47.2698 60.5921L47.2682 60.5888ZM52.3779 71.4566V70.8379C52.3779 68.6758 52.3779 66.5153 52.3779 64.3532C52.3779 63.4133 52.1744 63.1881 51.3035 63.1864C49.4026 63.1813 47.5018 63.1813 45.601 63.1864C44.7539 63.1881 44.5393 63.4167 44.5377 64.3011C44.5345 66.5052 44.5361 68.7077 44.5377 70.9119C44.5377 71.0918 44.56 71.27 44.5727 71.4583H52.3763L52.3779 71.4566ZM36.2176 71.4482C36.2176 70.7067 36.2176 70.0376 36.2176 69.3668C36.2176 65.7554 36.2176 62.1423 36.2176 58.5309C36.2176 58.1593 36.2477 57.8096 35.7233 57.8164C34.3962 57.8348 33.0675 57.8079 31.742 57.8416C31.5783 57.8449 31.3049 58.082 31.2827 58.24C31.2207 58.7058 31.2604 59.1866 31.2604 59.7028C31.823 59.7028 32.2967 59.696 32.7703 59.7028C33.5952 59.7162 34.1292 60.2021 34.1387 60.9368C34.1498 61.6951 33.5983 62.2062 32.7449 62.2196C32.2728 62.2264 31.8008 62.2196 31.3065 62.2196V63.7748C31.8723 63.7748 32.3857 63.7563 32.899 63.7799C33.6285 63.8118 34.1323 64.3364 34.1387 65.0324C34.1451 65.7503 33.619 66.2732 32.8561 66.2917C32.3475 66.3035 31.8373 66.2934 31.3049 66.2934V67.8771C31.8278 67.8771 32.2998 67.8687 32.7735 67.8788C33.6063 67.8973 34.1323 68.3798 34.1403 69.1163C34.1498 69.8745 33.6047 70.3772 32.7433 70.394C32.2728 70.4024 31.8008 70.394 31.3002 70.394V71.4415H36.2176V71.4482ZM64.2724 71.4448C64.2724 68.1327 64.2693 64.8996 64.2772 61.6665C64.2772 61.2798 64.0881 61.2226 63.7877 61.2243C62.8754 61.2344 61.9631 61.2563 61.0525 61.2159C60.5614 61.1941 60.4549 61.3874 60.458 61.8699C60.4755 64.8946 60.466 67.9209 60.4692 70.9455C60.4692 71.1069 60.493 71.2683 60.5073 71.4448H64.2724ZM63.1838 58.6755C63.0995 58.2384 63.1392 57.6516 62.9231 57.512C62.6323 57.3237 62.0537 57.3372 61.7692 57.5373C61.561 57.6835 61.6278 58.2686 61.569 58.6755H63.1838Z"/>
</mask>
<path d="M78.9134 27.0674V68.9313C78.8816 69.007 78.8339 69.0776 78.818 69.1566C78.2061 72.1661 76.105 73.9785 73.195 73.997C72.1444 74.0037 71.0939 73.997 70.0417 73.997C54.6363 73.997 39.2309 73.9987 23.8239 73.997C20.4275 73.997 18.007 71.5222 18.0038 68.0167C17.9974 54.669 17.9974 41.3247 18.0165 27.9803C18.0165 27.2994 18.1278 26.5916 18.3296 25.946C19.1052 23.4644 21.1761 22 23.8271 22C40.2433 22 56.6611 22 73.0773 22C73.2363 22 73.3952 22 73.5526 22.0067C75.7442 22.1261 77.3447 23.2357 78.3317 25.2953C78.5955 25.8468 78.7227 26.4722 78.9118 27.064L78.9134 27.0674ZM28.8764 71.4448C28.8764 68.9414 28.8764 66.5052 28.8764 64.069C28.8764 62.1574 28.8637 60.2441 28.8812 58.3325C28.8987 56.4646 30.0064 55.3096 31.7547 55.3045C33.0437 55.3012 34.3326 55.3028 35.62 55.3045C37.5287 55.3062 38.5952 56.436 38.5968 58.467C38.6 62.5441 38.5968 66.6195 38.5968 70.6967C38.5968 70.9404 38.5968 71.1842 38.5968 71.4415H42.1585C42.1585 71.1809 42.1585 70.9556 42.1585 70.7303C42.1585 68.5866 42.1553 66.443 42.1617 64.3011C42.1617 63.9883 42.1823 63.6706 42.23 63.3629C42.3937 62.2987 43.0199 61.569 43.8543 60.9957C42.8355 58.3998 41.8327 55.8442 40.8298 53.2903C39.9127 50.955 40.2322 49.42 41.9455 47.6749C44.0816 45.4993 46.0921 43.2144 47.4176 40.3546C47.6258 39.9057 47.9818 39.6652 48.4681 39.6652C48.9783 39.6652 49.3168 39.9258 49.5616 40.3882C49.97 41.1548 50.3133 41.9871 50.8394 42.6512C52.2762 44.4653 53.759 46.2441 55.2911 47.9691C56.5515 49.3881 56.9409 51.0727 56.2511 52.8868C55.8967 53.8199 55.5248 54.748 55.1624 55.6778C54.471 57.4582 53.7813 59.2387 53.082 61.036C54.3788 61.8531 54.7953 63.0737 54.7651 64.5768C54.7221 66.6347 54.7539 68.6943 54.7539 70.7538V71.4263H58.0868C58.0868 71.1472 58.0868 70.9186 58.0868 70.6882C58.0868 67.6619 58.055 64.6356 58.1122 61.611C58.1249 60.9822 58.322 60.229 58.6939 59.7666C59.1453 59.2051 59.2422 58.6704 59.2215 58.0097C59.1818 56.6832 59.7301 55.7198 60.8427 55.096C61.0016 55.0069 61.1558 54.7379 61.1637 54.5463C61.1987 53.7073 61.1717 52.8667 61.1812 52.026C61.1907 51.1921 61.6485 50.6575 62.3414 50.644C63.055 50.6306 63.5429 51.182 63.5557 52.0412C63.5684 52.8599 63.5747 53.6804 63.5509 54.4992C63.5414 54.8405 63.6383 55.017 63.9403 55.1616C64.7047 55.5281 65.2276 56.167 65.4025 57.0346C65.5121 57.581 65.4565 58.1627 65.5074 58.7259C65.5264 58.9361 65.5821 59.2 65.7156 59.3295C66.4133 60.0054 66.6612 60.8376 66.6564 61.8144C66.6406 64.7987 66.6517 67.7813 66.6517 70.7656C66.6517 70.9892 66.6517 71.2111 66.6517 71.4785C68.8497 71.4785 70.9667 71.4818 73.0853 71.4785C75.2452 71.4751 76.5325 70.1183 76.5325 67.8418C76.5341 58.4283 76.5325 49.0148 76.5325 39.5997C76.5325 39.3777 76.5325 39.1575 76.5325 38.9372H20.3814C20.3814 39.1928 20.3814 39.4181 20.3814 39.6434C20.3814 49.0148 20.3814 58.3863 20.3814 67.7595C20.3814 67.9696 20.3767 68.1798 20.391 68.3899C20.4911 69.9098 21.6338 71.3423 23.0404 71.4196C24.954 71.5255 26.8755 71.4465 28.8764 71.4465V71.4448ZM20.3894 36.3329H76.5246C76.5246 33.3856 76.5246 30.4854 76.523 27.5869C76.523 27.4827 76.5024 27.3784 76.4833 27.2759C76.1622 25.5425 74.9098 24.5219 73.0821 24.5219C56.6643 24.5219 40.2481 24.5219 23.8303 24.5219C23.6714 24.5219 23.5124 24.5219 23.3551 24.5303C21.8023 24.606 20.4387 25.9376 20.4053 27.5886C20.3481 30.4854 20.3894 33.3856 20.3894 36.3346V36.3329ZM47.2682 60.5888C47.2682 58.5528 47.2634 56.5386 47.2714 54.5261C47.2745 53.6602 47.7545 53.1239 48.4808 53.1373C49.1801 53.1491 49.6379 53.6754 49.6442 54.5126C49.6538 56.0241 49.6474 57.5373 49.6474 59.0487C49.6474 59.5682 49.6474 60.0894 49.6474 60.6981C50.0924 60.5501 50.5629 60.9318 50.8156 60.271C51.8852 57.4734 52.9818 54.6858 54.0626 51.8932C54.3757 51.0845 54.2167 50.3784 53.6191 49.7748C53.1169 49.267 52.5972 48.7761 52.1395 48.2263C50.8855 46.7199 49.6617 45.1866 48.4109 43.6465C48.4045 43.6549 48.333 43.7222 48.2806 43.8045C46.8947 45.9717 45.2227 47.8733 43.4299 49.6638C42.6432 50.449 42.5224 51.0357 42.9341 52.0865C43.9592 54.7009 45.0129 57.3019 45.9967 59.9331C46.251 60.6123 46.5864 60.809 47.2698 60.5921L47.2682 60.5888ZM52.3779 71.4566V70.8379C52.3779 68.6758 52.3779 66.5153 52.3779 64.3532C52.3779 63.4133 52.1744 63.1881 51.3035 63.1864C49.4026 63.1813 47.5018 63.1813 45.601 63.1864C44.7539 63.1881 44.5393 63.4167 44.5377 64.3011C44.5345 66.5052 44.5361 68.7077 44.5377 70.9119C44.5377 71.0918 44.56 71.27 44.5727 71.4583H52.3763L52.3779 71.4566ZM36.2176 71.4482C36.2176 70.7067 36.2176 70.0376 36.2176 69.3668C36.2176 65.7554 36.2176 62.1423 36.2176 58.5309C36.2176 58.1593 36.2477 57.8096 35.7233 57.8164C34.3962 57.8348 33.0675 57.8079 31.742 57.8416C31.5783 57.8449 31.3049 58.082 31.2827 58.24C31.2207 58.7058 31.2604 59.1866 31.2604 59.7028C31.823 59.7028 32.2967 59.696 32.7703 59.7028C33.5952 59.7162 34.1292 60.2021 34.1387 60.9368C34.1498 61.6951 33.5983 62.2062 32.7449 62.2196C32.2728 62.2264 31.8008 62.2196 31.3065 62.2196V63.7748C31.8723 63.7748 32.3857 63.7563 32.899 63.7799C33.6285 63.8118 34.1323 64.3364 34.1387 65.0324C34.1451 65.7503 33.619 66.2732 32.8561 66.2917C32.3475 66.3035 31.8373 66.2934 31.3049 66.2934V67.8771C31.8278 67.8771 32.2998 67.8687 32.7735 67.8788C33.6063 67.8973 34.1323 68.3798 34.1403 69.1163C34.1498 69.8745 33.6047 70.3772 32.7433 70.394C32.2728 70.4024 31.8008 70.394 31.3002 70.394V71.4415H36.2176V71.4482ZM64.2724 71.4448C64.2724 68.1327 64.2693 64.8996 64.2772 61.6665C64.2772 61.2798 64.0881 61.2226 63.7877 61.2243C62.8754 61.2344 61.9631 61.2563 61.0525 61.2159C60.5614 61.1941 60.4549 61.3874 60.458 61.8699C60.4755 64.8946 60.466 67.9209 60.4692 70.9455C60.4692 71.1069 60.493 71.2683 60.5073 71.4448H64.2724ZM63.1838 58.6755C63.0995 58.2384 63.1392 57.6516 62.9231 57.512C62.6323 57.3237 62.0537 57.3372 61.7692 57.5373C61.561 57.6835 61.6278 58.2686 61.569 58.6755H63.1838Z" fill="#FD6F00"/>
<path d="M78.9134 27.0674V68.9313C78.8816 69.007 78.8339 69.0776 78.818 69.1566C78.2061 72.1661 76.105 73.9785 73.195 73.997C72.1444 74.0037 71.0939 73.997 70.0417 73.997C54.6363 73.997 39.2309 73.9987 23.8239 73.997C20.4275 73.997 18.007 71.5222 18.0038 68.0167C17.9974 54.669 17.9974 41.3247 18.0165 27.9803C18.0165 27.2994 18.1278 26.5916 18.3296 25.946C19.1052 23.4644 21.1761 22 23.8271 22C40.2433 22 56.6611 22 73.0773 22C73.2363 22 73.3952 22 73.5526 22.0067C75.7442 22.1261 77.3447 23.2357 78.3317 25.2953C78.5955 25.8468 78.7227 26.4722 78.9118 27.064L78.9134 27.0674ZM28.8764 71.4448C28.8764 68.9414 28.8764 66.5052 28.8764 64.069C28.8764 62.1574 28.8637 60.2441 28.8812 58.3325C28.8987 56.4646 30.0064 55.3096 31.7547 55.3045C33.0437 55.3012 34.3326 55.3028 35.62 55.3045C37.5287 55.3062 38.5952 56.436 38.5968 58.467C38.6 62.5441 38.5968 66.6195 38.5968 70.6967C38.5968 70.9404 38.5968 71.1842 38.5968 71.4415H42.1585C42.1585 71.1809 42.1585 70.9556 42.1585 70.7303C42.1585 68.5866 42.1553 66.443 42.1617 64.3011C42.1617 63.9883 42.1823 63.6706 42.23 63.3629C42.3937 62.2987 43.0199 61.569 43.8543 60.9957C42.8355 58.3998 41.8327 55.8442 40.8298 53.2903C39.9127 50.955 40.2322 49.42 41.9455 47.6749C44.0816 45.4993 46.0921 43.2144 47.4176 40.3546C47.6258 39.9057 47.9818 39.6652 48.4681 39.6652C48.9783 39.6652 49.3168 39.9258 49.5616 40.3882C49.97 41.1548 50.3133 41.9871 50.8394 42.6512C52.2762 44.4653 53.759 46.2441 55.2911 47.9691C56.5515 49.3881 56.9409 51.0727 56.2511 52.8868C55.8967 53.8199 55.5248 54.748 55.1624 55.6778C54.471 57.4582 53.7813 59.2387 53.082 61.036C54.3788 61.8531 54.7953 63.0737 54.7651 64.5768C54.7221 66.6347 54.7539 68.6943 54.7539 70.7538V71.4263H58.0868C58.0868 71.1472 58.0868 70.9186 58.0868 70.6882C58.0868 67.6619 58.055 64.6356 58.1122 61.611C58.1249 60.9822 58.322 60.229 58.6939 59.7666C59.1453 59.2051 59.2422 58.6704 59.2215 58.0097C59.1818 56.6832 59.7301 55.7198 60.8427 55.096C61.0016 55.0069 61.1558 54.7379 61.1637 54.5463C61.1987 53.7073 61.1717 52.8667 61.1812 52.026C61.1907 51.1921 61.6485 50.6575 62.3414 50.644C63.055 50.6306 63.5429 51.182 63.5557 52.0412C63.5684 52.8599 63.5747 53.6804 63.5509 54.4992C63.5414 54.8405 63.6383 55.017 63.9403 55.1616C64.7047 55.5281 65.2276 56.167 65.4025 57.0346C65.5121 57.581 65.4565 58.1627 65.5074 58.7259C65.5264 58.9361 65.5821 59.2 65.7156 59.3295C66.4133 60.0054 66.6612 60.8376 66.6564 61.8144C66.6406 64.7987 66.6517 67.7813 66.6517 70.7656C66.6517 70.9892 66.6517 71.2111 66.6517 71.4785C68.8497 71.4785 70.9667 71.4818 73.0853 71.4785C75.2452 71.4751 76.5325 70.1183 76.5325 67.8418C76.5341 58.4283 76.5325 49.0148 76.5325 39.5997C76.5325 39.3777 76.5325 39.1575 76.5325 38.9372H20.3814C20.3814 39.1928 20.3814 39.4181 20.3814 39.6434C20.3814 49.0148 20.3814 58.3863 20.3814 67.7595C20.3814 67.9696 20.3767 68.1798 20.391 68.3899C20.4911 69.9098 21.6338 71.3423 23.0404 71.4196C24.954 71.5255 26.8755 71.4465 28.8764 71.4465V71.4448ZM20.3894 36.3329H76.5246C76.5246 33.3856 76.5246 30.4854 76.523 27.5869C76.523 27.4827 76.5024 27.3784 76.4833 27.2759C76.1622 25.5425 74.9098 24.5219 73.0821 24.5219C56.6643 24.5219 40.2481 24.5219 23.8303 24.5219C23.6714 24.5219 23.5124 24.5219 23.3551 24.5303C21.8023 24.606 20.4387 25.9376 20.4053 27.5886C20.3481 30.4854 20.3894 33.3856 20.3894 36.3346V36.3329ZM47.2682 60.5888C47.2682 58.5528 47.2634 56.5386 47.2714 54.5261C47.2745 53.6602 47.7545 53.1239 48.4808 53.1373C49.1801 53.1491 49.6379 53.6754 49.6442 54.5126C49.6538 56.0241 49.6474 57.5373 49.6474 59.0487C49.6474 59.5682 49.6474 60.0894 49.6474 60.6981C50.0924 60.5501 50.5629 60.9318 50.8156 60.271C51.8852 57.4734 52.9818 54.6858 54.0626 51.8932C54.3757 51.0845 54.2167 50.3784 53.6191 49.7748C53.1169 49.267 52.5972 48.7761 52.1395 48.2263C50.8855 46.7199 49.6617 45.1866 48.4109 43.6465C48.4045 43.6549 48.333 43.7222 48.2806 43.8045C46.8947 45.9717 45.2227 47.8733 43.4299 49.6638C42.6432 50.449 42.5224 51.0357 42.9341 52.0865C43.9592 54.7009 45.0129 57.3019 45.9967 59.9331C46.251 60.6123 46.5864 60.809 47.2698 60.5921L47.2682 60.5888ZM52.3779 71.4566V70.8379C52.3779 68.6758 52.3779 66.5153 52.3779 64.3532C52.3779 63.4133 52.1744 63.1881 51.3035 63.1864C49.4026 63.1813 47.5018 63.1813 45.601 63.1864C44.7539 63.1881 44.5393 63.4167 44.5377 64.3011C44.5345 66.5052 44.5361 68.7077 44.5377 70.9119C44.5377 71.0918 44.56 71.27 44.5727 71.4583H52.3763L52.3779 71.4566ZM36.2176 71.4482C36.2176 70.7067 36.2176 70.0376 36.2176 69.3668C36.2176 65.7554 36.2176 62.1423 36.2176 58.5309C36.2176 58.1593 36.2477 57.8096 35.7233 57.8164C34.3962 57.8348 33.0675 57.8079 31.742 57.8416C31.5783 57.8449 31.3049 58.082 31.2827 58.24C31.2207 58.7058 31.2604 59.1866 31.2604 59.7028C31.823 59.7028 32.2967 59.696 32.7703 59.7028C33.5952 59.7162 34.1292 60.2021 34.1387 60.9368C34.1498 61.6951 33.5983 62.2062 32.7449 62.2196C32.2728 62.2264 31.8008 62.2196 31.3065 62.2196V63.7748C31.8723 63.7748 32.3857 63.7563 32.899 63.7799C33.6285 63.8118 34.1323 64.3364 34.1387 65.0324C34.1451 65.7503 33.619 66.2732 32.8561 66.2917C32.3475 66.3035 31.8373 66.2934 31.3049 66.2934V67.8771C31.8278 67.8771 32.2998 67.8687 32.7735 67.8788C33.6063 67.8973 34.1323 68.3798 34.1403 69.1163C34.1498 69.8745 33.6047 70.3772 32.7433 70.394C32.2728 70.4024 31.8008 70.394 31.3002 70.394V71.4415H36.2176V71.4482ZM64.2724 71.4448C64.2724 68.1327 64.2693 64.8996 64.2772 61.6665C64.2772 61.2798 64.0881 61.2226 63.7877 61.2243C62.8754 61.2344 61.9631 61.2563 61.0525 61.2159C60.5614 61.1941 60.4549 61.3874 60.458 61.8699C60.4755 64.8946 60.466 67.9209 60.4692 70.9455C60.4692 71.1069 60.493 71.2683 60.5073 71.4448H64.2724ZM63.1838 58.6755C63.0995 58.2384 63.1392 57.6516 62.9231 57.512C62.6323 57.3237 62.0537 57.3372 61.7692 57.5373C61.561 57.6835 61.6278 58.2686 61.569 58.6755H63.1838Z" stroke="#FD6F00" mask="url(#path-3-outside-1_2073_59)"/>
<path d="M36.1476 27.0287C38.1359 27.0253 39.7506 28.7234 39.7554 30.8233C39.7602 32.9098 38.1343 34.6331 36.1572 34.6365C34.1816 34.6398 32.5526 32.9216 32.5494 30.8334C32.5462 28.7369 34.1594 27.032 36.1476 27.0287ZM36.1651 29.554C35.4992 29.5472 34.9493 30.1037 34.9334 30.7998C34.9159 31.5093 35.4928 32.1213 36.1699 32.1112C36.8231 32.1011 37.373 31.5127 37.373 30.825C37.373 30.1306 36.8279 29.559 36.1651 29.5523V29.554Z" fill="black"/>
<path d="M30.0399 30.847C30.0319 32.957 28.4314 34.6416 26.4384 34.6349C24.4549 34.6282 22.8656 32.9217 22.8704 30.8083C22.8767 28.6983 24.4804 27.017 26.475 27.0271C28.4728 27.0372 30.0478 28.7235 30.0399 30.847ZM25.2512 30.8133C25.2448 31.5296 25.7725 32.1029 26.4416 32.1113C27.1187 32.1197 27.6495 31.5649 27.6574 30.8436C27.6654 30.1173 27.1536 29.5625 26.4702 29.5557C25.7868 29.549 25.2575 30.0937 25.2528 30.815L25.2512 30.8133Z" fill="black"/>
<path d="M45.8361 27.0271C47.8339 27.0203 49.4264 28.6983 49.4296 30.815C49.4344 32.93 47.8451 34.6281 45.8568 34.6332C43.8701 34.6382 42.2633 32.9435 42.2601 30.8385C42.257 28.7218 43.8399 27.0321 45.8361 27.0271ZM47.0472 30.8419C47.0536 30.1156 46.5418 29.5608 45.8584 29.554C45.175 29.5473 44.6473 30.0937 44.641 30.8133C44.6362 31.5295 45.1623 32.1028 45.833 32.1096C46.51 32.1163 47.0408 31.5615 47.0472 30.8402V30.8419Z" fill="black"/>
<path d="M48.4283 51.5031C47.7958 51.4846 47.2665 50.8995 47.2729 50.2253C47.2792 49.5158 47.8355 48.9644 48.5157 48.9963C49.1626 49.0266 49.668 49.6033 49.6426 50.2859C49.6187 50.955 49.0545 51.5199 48.4283 51.5014V51.5031Z" fill="#FD6F00"/>
<defs>
<filter id="filter0_d_2073_59" x="0" y="0" width="97" height="97" filterUnits="userSpaceOnUse" color-interpolation-filters="sRGB">
<feFlood flood-opacity="0" result="BackgroundImageFix"/>
<feColorMatrix in="SourceAlpha" type="matrix" values="0 0 0 0 0 0 0 0 0 0 0 0 0 0 0 0 0 0 127 0" result="hardAlpha"/>
<feMorphology radius="1" operator="dilate" in="SourceAlpha" result="effect1_dropShadow_2073_59"/>
<feOffset/>
<feGaussianBlur stdDeviation="2"/>
<feComposite in2="hardAlpha" operator="out"/>
<feColorMatrix type="matrix" values="0 0 0 0 0 0 0 0 0 0 0 0 0 0 0 0 0 0 0.25 0"/>
<feBlend mode="normal" in2="BackgroundImageFix" result="effect1_dropShadow_2073_59"/>
<feBlend mode="normal" in="SourceGraphic" in2="effect1_dropShadow_2073_59" result="shape"/>
</filter>
</defs>
</svg>
