<svg xmlns="http://www.w3.org/2000/svg" viewBox="0 0 210.97 33.92"><defs><style>.cls-1{fill:#231f20;}</style></defs><g id="Layer_2" data-name="Layer 2"><g id="Layer_1-2" data-name="Layer 1"><path class="cls-1" d="M140.31,12.62l-2,3.07c-.66,1-1.29,2-2,3-.91,1.3-2,1.3-2.92,0-1.15-1.69-2.27-3.4-3.41-5.11l-.79-1.11c0,.58-.07.9-.07,1.23,0,3,0,6,0,9,0,1.34-.6,2-1.69,2s-1.59-.66-1.59-2c0-4.86,0-9.72,0-14.58a1.8,1.8,0,0,1,1.21-2,2,2,0,0,1,2.42.95c1.59,2.44,3.15,4.9,4.73,7.35.2.32.41.63.68,1,.26-.36.46-.62.64-.91,1.58-2.45,3.14-4.91,4.72-7.36a2.07,2.07,0,0,1,2.46-1.09c1.05.32,1.26,1.14,1.26,2.13,0,4.79,0,9.58,0,14.37,0,1.32-.6,2.05-1.66,2.05s-1.66-.73-1.67-2.07c0-2.92,0-5.84,0-8.75V12.7Z"/><path class="cls-1" d="M189.6,21.35c-3,2.61-6.69,2.68-9.14.24a7,7,0,0,1-.3-9.13c2.39-2.72,5.92-2.81,9.44-.18.09-.3.09-.68.27-.83.48-.39,1-.95,1.56-.93s1,.65,1.47,1.06a.91.91,0,0,1,.14.59c0,3.4.14,6.81-.07,10.2-.25,4.13-2.4,6.08-6.54,6.36a12.25,12.25,0,0,1-6.07-1.14c-1-.44-1.32-1.1-1-1.87a1.47,1.47,0,0,1,2.13-.61A9,9,0,0,0,186,26C188.58,25.87,190,24.07,189.6,21.35Zm-3.76-8.24A3.62,3.62,0,0,0,182,16.82a3.6,3.6,0,0,0,3.81,3.77,3.74,3.74,0,1,0,.06-7.48Z"/><path class="cls-1" d="M159.1,12.25c.26-.24.52-.5.8-.73a5.1,5.1,0,0,1,5.38-.79,4.34,4.34,0,0,1,2.78,4.17c.11,2.67.08,5.34.06,8a1.54,1.54,0,0,1-1.66,1.71,1.59,1.59,0,0,1-1.58-1.8c0-1.88,0-3.76,0-5.63a10.13,10.13,0,0,0-.16-1.65,2.61,2.61,0,0,0-2.29-2.23A2.8,2.8,0,0,0,159.28,15a5.65,5.65,0,0,0-.35,1.82c0,2,0,4,0,5.94,0,1.2-.61,1.85-1.63,1.87s-1.64-.63-1.64-1.85q0-7.87,0-15.74a1.65,1.65,0,0,1,1.64-1.87c1,0,1.62.72,1.64,1.88,0,1.7,0,3.4.05,5.1C159,12.17,159,12.18,159.1,12.25Z"/><path class="cls-1" d="M196.13,17.51a7.42,7.42,0,0,1,14.84.12,7.31,7.31,0,0,1-7.42,7.16A7.1,7.1,0,0,1,196.13,17.51Zm11.5.14a4.24,4.24,0,0,0-4.1-4.47,4.15,4.15,0,0,0-4.14,4.29,4.2,4.2,0,0,0,4.12,4.44A4,4,0,0,0,207.63,17.65Z"/><path class="cls-1" d="M104.82,12.37a5.24,5.24,0,0,1,3.91-2c2.94-.06,5,1.64,5.11,4.58.13,2.7.06,5.41,0,8.12a1.53,1.53,0,0,1-1.59,1.57,1.5,1.5,0,0,1-1.62-1.53c0-1.77,0-3.54,0-5.31,0-.59,0-1.18-.08-1.76a2.68,2.68,0,0,0-3-2.71,2.85,2.85,0,0,0-2.81,2.9c-.07,2.15,0,4.31,0,6.46a1.8,1.8,0,0,1-1,1.81,1.59,1.59,0,0,1-2.32-1.42c-.06-3.68,0-7.36,0-11a1.47,1.47,0,0,1,1.41-1.54,1.52,1.52,0,0,1,1.77,1.11C104.65,11.82,104.71,12,104.82,12.37Z"/><path class="cls-1" d="M62.78,22.71a5.13,5.13,0,0,1-4.45,2.07,4.42,4.42,0,0,1-4.48-4.1c-.19-2.87-.14-5.75-.12-8.63a1.52,1.52,0,0,1,1.69-1.58A1.61,1.61,0,0,1,57,12.22c0,2.19,0,4.38,0,6.56a2.81,2.81,0,0,0,3.87,2.86,2.64,2.64,0,0,0,1.89-2A8.6,8.6,0,0,0,63,17.86c0-1.88,0-3.75,0-5.63a1.58,1.58,0,0,1,1.61-1.77,1.62,1.62,0,0,1,1.64,1.76c0,.21,0,.42,0,.63v9.48c0,1.53-.38,2.13-1.42,2.25S63.24,24.26,62.78,22.71Z"/><path class="cls-1" d="M74.79,24.9a10.61,10.61,0,0,1-5.12-1.73,1.28,1.28,0,0,1-.49-1.88c.41-.72,1.09-.7,1.82-.42,1.22.45,2.45.9,3.7,1.26A1.65,1.65,0,0,0,75.9,22c.43-.26,1-.71,1-1.12a1.68,1.68,0,0,0-.73-1.31A10.94,10.94,0,0,0,74,18.75c-.68-.24-1.4-.4-2-.7a3.58,3.58,0,0,1-2.28-3.42A3.77,3.77,0,0,1,71.85,11c2.5-1.24,4.94-.65,7.24.62a1.87,1.87,0,0,1,.49,1.59c-.13.68-.82.91-1.51.73-.53-.13-1-.46-1.55-.56a11.13,11.13,0,0,0-2.74-.27,1.58,1.58,0,0,0-1.06,1c-.08.33.37.94.74,1.18a13.85,13.85,0,0,0,2.1.87c.77.3,1.57.56,2.31.93A3.49,3.49,0,0,1,80,20.64a3.74,3.74,0,0,1-2.44,3.56A23.71,23.71,0,0,1,74.79,24.9Z"/><path class="cls-1" d="M49.89,13.37c0,1.76,0,3.53,0,5.3a5.76,5.76,0,0,1-3.66,5.65,7.21,7.21,0,0,1-7.6-1.6,1.65,1.65,0,0,1-.11-2.26,1.6,1.6,0,0,1,2.32,0,8.65,8.65,0,0,0,.89.71c2.3,1.43,4.72.19,4.78-2.51.08-3.36,0-6.73,0-10.09,0-.31,0-.63,0-.94A1.66,1.66,0,0,1,48.26,6a1.59,1.59,0,0,1,1.63,1.66c0,1.91,0,3.82,0,5.73Z"/><path class="cls-1" d="M83.83,13.58c-1-.24-1.92-.46-1.86-1.66s.9-1.28,1.86-1.42c0-.72,0-1.45,0-2.17a1.66,1.66,0,0,1,1.55-1.65,1.6,1.6,0,0,1,1.68,1.51c.07.74,0,1.5,0,2.39.85,0,1.53,0,2.21,0,1,0,1.64.55,1.67,1.35s-.56,1.38-1.54,1.51H89.2c-2.09.15-2.09.15-2.09,2.29,0,1.36,0,2.71,0,4.06,0,1.6.47,2,2.07,2a2.19,2.19,0,0,1,1.32.39,1.28,1.28,0,0,1-.46,2.13,4.11,4.11,0,0,1-6.22-3.69C83.81,18.3,83.83,15.94,83.83,13.58Z"/><path class="cls-1" d="M151.62,17.57c0,1.69,0,3.39,0,5.09,0,1.28-.59,2-1.64,2s-1.63-.64-1.64-1.86q0-5.25,0-10.5c0-1.18.68-1.85,1.68-1.82s1.58.73,1.6,1.91C151.63,14.1,151.62,15.83,151.62,17.57Z"/><path class="cls-1" d="M172,17.57c0-1.7,0-3.4,0-5.1,0-1.27.6-2,1.61-2s1.72.73,1.73,2q0,5.1,0,10.2c0,1.26-.63,1.95-1.68,2S172,24,172,22.67C172,21,172,19.27,172,17.57Z"/><path class="cls-1" d="M94.08,17.46c0-1.67,0-3.33,0-5,0-1.28.6-2,1.61-2s1.7.72,1.7,2c0,3.39,0,6.79,0,10.18,0,1.26-.62,1.95-1.66,1.95s-1.63-.68-1.64-2C94.07,20.92,94.08,19.19,94.08,17.46Z"/><path class="cls-1" d="M173.63,5.35A1.7,1.7,0,0,1,175.54,7a1.79,1.79,0,0,1-1.91,1.76A1.75,1.75,0,0,1,171.78,7,1.66,1.66,0,0,1,173.63,5.35Z"/><path class="cls-1" d="M95.71,5.35A1.71,1.71,0,0,1,97.6,7a1.79,1.79,0,0,1-1.91,1.74A1.75,1.75,0,0,1,93.86,7,1.66,1.66,0,0,1,95.71,5.35Z"/><path class="cls-1" d="M150,5.35A1.65,1.65,0,0,1,151.82,7,1.73,1.73,0,0,1,150,8.72,1.76,1.76,0,0,1,148.09,7,1.68,1.68,0,0,1,150,5.35Z"/><path class="cls-1" d="M2.23,26.58,26.46,2.38a4.34,4.34,0,0,1-.92,4.39c-.78.78-1.54,1.58-2.43,2.48l2.08.12V12H22.26l.36,2.54h3.93V17.3h-4l-.66,2.62H25.2v2.76c-1.28,0-2.58,0-3.88,0a1.64,1.64,0,0,0-1.48.7c-2.95,3.5-7.69,4.48-11.48,1.52-.14-.11-.29-.19-.62-.4C6.44,26.69,4.43,27.09,2.23,26.58Z"/><path class="cls-1" d="M4.72,19.81a13,13,0,0,1-.48-1.73c-.08-.62-.37-.79-1-.77-1,0-2.07,0-3.19,0v-2.7H3.91l.36-2.55H1.36V9.32c1,0,2,0,3.06,0a1.41,1.41,0,0,0,1.35-.7C6.57,7.51,7.51,6.5,8.5,5.31L6.74,1.05,9.25,0,11,4.12h4.52L17.29,0l2.52,1c-.5,1.21-.93,2.34-1.43,3.43-.29.63-.56,1.19.21,1.66L17.27,7.51c-.7-.69-1.43-1.2-2.24-.34s-.23,1.51.3,2ZM10.59,9.25A1.15,1.15,0,0,0,11.87,8a1.23,1.23,0,0,0-1.2-1.29A1.33,1.33,0,0,0,9.36,8,1.2,1.2,0,0,0,10.59,9.25Z"/><path class="cls-1" d="M0,33.92V31.27H26.71v2.65Z"/></g></g></svg>