<svg width="169" height="102" viewBox="0 0 169 102" fill="none" xmlns="http://www.w3.org/2000/svg">
<path d="M1 100L2.67 93.39L4.34 86.68L6.01 101L7.68 98.1L9.35 86.84L11.02 89.24L12.69 84.52L14.36 84.1L16.03 80.74L17.7 75.73L19.37 78.56L21.04 79.29L22.71 80.23L24.38 74.11L26.05 64.88L27.72 64.37L29.39 73.53L31.06 66.55L32.73 61.21L34.4 69.61L36.07 64.41L37.74 53.93L39.41 59.04L41.08 66.47L42.75 72.5L44.42 57.32L46.09 58.12L47.76 66.94L49.43 50.02L51.1 51.95L52.77 60.78L54.44 68.06L56.11 71.22L57.78 77.97L59.45 75.98L61.12 75.8L62.79 61.93H64.46L66.13 64.47L67.8 62.82L69.47 66.01L71.14 68.01L72.81 71.44L74.48 69.72L76.15 59.15L77.82 59.01L79.49 55.46L81.16 56.57L82.83 64.1L84.5 55.65L86.17 52.39L87.84 54.68L89.51 47.45L91.18 43.71L92.85 46.73L94.52 42.24L96.19 44.86L97.86 36.23L99.53 42.04L101.2 42.48L102.87 42.47L104.54 46.47L106.21 44.58L107.88 45.1L109.55 30.26L111.22 36.23L112.89 26.83L114.56 28.11L116.23 25.07L117.9 25.6L119.57 32.64L121.24 26.71L122.91 15.33L124.58 7.38L126.25 8.1L127.92 11.5L129.59 3.83L131.26 7.97L132.93 23.07L134.6 25.81L136.27 30.82L137.94 26.85L139.61 14.27L141.28 14.99L142.95 11.07L144.62 11.95L146.29 16.24L147.96 9.53L149.63 2.9L151.3 1L152.97 2.68L154.64 10.23L156.31 19.83L157.98 25.77L159.65 28.23L161.32 26.12L162.99 28.63L164.66 24.48L166.33 28.2L168 20.44" stroke="#1EC22E" stroke-linecap="round" stroke-linejoin="round"/>
</svg>
