<svg width="133" height="102" viewBox="0 0 133 102" fill="none" xmlns="http://www.w3.org/2000/svg">
<path d="M1 92.54L2.31 98.24L3.62 91.9L4.93 98.19L6.24 101L7.55 89.33L8.86 86.79L10.17 86.77L11.48 79.36L12.79 71.87L14.1 73.34L15.41 63.94L16.72 60.23L18.03 55.08L19.34 58.58L20.65 49.98L21.96 41.49L23.27 42.74L24.58 43.2L25.89 42.57L27.2 45.21L28.51 46.99L29.82 59.05L31.13 62.87L32.44 68.62L33.75 70.24L35.06 68.27L36.37 76.39L37.68 72.37L38.99 67.74L40.3 73.58L41.61 72.34L42.92 78.14L44.23 77.01L45.54 77.81L46.85 75.82L48.16 78.08L49.47 79.43L50.78 68.13L52.09 72.31L53.4 71.55L54.71 75.36L56.02 85.52L57.33 87.41L58.64 83.9L59.95 88.04L61.26 85.3L62.57 80.47L63.88 78.54L65.19 76.61L66.5 82.61L67.81 85.76L69.12 80.59L70.43 85.81L71.74 81.23L73.05 85.99L74.36 79.14L75.67 66.03L76.98 63.73L78.29 53.55L79.6 53.18L80.91 51.94L82.22 51.29L83.53 52.14L84.84 44.51L86.15 37.43L87.46 35.34L88.77 33.43L90.08 35.93L91.39 39.22L92.7 39.25L94.01 43.37L95.32 38.16L96.63 37.7L97.94 37.52L99.25 34.5L100.56 24.54L101.87 23.5L103.18 28.76L104.49 24.65L105.8 14.37L107.11 18.71L108.42 24.95L109.73 26.2L111.04 21.79L112.35 15.6L113.66 15.96L114.97 12L116.28 10.9L117.59 3.65L118.9 3.77L120.21 1L121.52 5.07L122.83 2.69L124.14 3.42L125.45 4.27L126.76 6.14L128.07 8.57L129.38 10.47L130.69 12.34L132 9.9" stroke="#1EC22E" stroke-linecap="round" stroke-linejoin="round"/>
</svg>
