<svg width="130" height="102" viewBox="0 0 130 102" fill="none" xmlns="http://www.w3.org/2000/svg">
<path d="M1 24.65L2.28 30.37L3.56 53.11L4.84 78.94L6.12 70.58L7.4 65.62L8.68 81.4L9.96 93.07L11.24 75.32L12.52 47.7L13.8 49.43L15.08 57.87L16.36 38.29L17.64 44.6L18.92 36.07L20.2 54.95L21.48 63.42L22.76 76.54L24.04 83.3L25.32 65.73L26.6 42.2L27.88 21.85L29.16 15.04L30.44 1L31.72 10.09L33 13.94L34.28 20.2L35.56 29.16L36.84 27.44L38.12 36.54L39.4 34.53L40.68 47.06L41.96 57.05L43.24 38.89L44.52 34.52L45.8 44.77L47.08 22.12L48.36 23.46L49.64 44.32L50.92 36.1L52.2 33.67L53.48 47.36L54.76 41.25L56.04 27.63L57.32 26.26L58.6 26.06L59.88 34.91L61.16 70.62L62.44 48.28L63.72 46.75L65 37.51L66.28 43.19L67.56 46.17L68.84 40.8L70.12 18.6L71.4 35.47L72.68 53L73.96 78.57L75.24 58.63L76.52 49.57L77.8 56.15L79.08 33.47L80.36 29.81L81.64 31.82L82.92 37.37L84.2 18.98L85.48 30.98L86.76 51.14L88.04 46.79L89.32 74.43L90.6 70.31L91.88 63.91L93.16 72.18L94.44 83.39L95.72 86.8L97 75.84L98.28 59.21L99.56 60.56L100.84 54.07L102.12 55.76L103.4 67.44L104.68 85.14L105.96 96.24L107.24 95.88L108.52 73.13L109.8 83.49L111.08 89.01L112.36 84.39L113.64 80.23L114.92 91.51L116.2 101L117.48 89.45L118.76 84.14L120.04 93.42L121.32 59.58L122.6 56.35L123.88 58.4L125.16 53.87L126.44 45.1L127.72 40.23L129 58.22" stroke="#E82B16" stroke-linecap="round" stroke-linejoin="round"/>
</svg>
