<svg xmlns="http://www.w3.org/2000/svg" viewBox="0 0 26.72 33.92"><defs><style>.cls-1{fill:#231f20;}</style></defs><g id="Layer_2" data-name="Layer 2"><g id="Layer_1-2" data-name="Layer 1"><path class="cls-1" d="M2.23,26.58,26.46,2.38a4.34,4.34,0,0,1-.92,4.39c-.78.78-1.54,1.58-2.43,2.48l2.08.12V12H22.26l.36,2.54h3.93V17.3h-4l-.66,2.62H25.2v2.76c-1.28,0-2.58,0-3.88,0a1.64,1.64,0,0,0-1.48.7c-2.95,3.5-7.69,4.48-11.48,1.52-.14-.11-.29-.19-.62-.4C6.44,26.69,4.43,27.09,2.23,26.58Z"/><path class="cls-1" d="M4.72,19.81a13,13,0,0,1-.48-1.73c-.08-.62-.37-.79-1-.77-1,0-2.07,0-3.19,0v-2.7H3.91l.36-2.55H1.36V9.32c1,0,2,0,3.06,0a1.41,1.41,0,0,0,1.35-.7C6.57,7.51,7.51,6.5,8.5,5.31L6.74,1.05,9.25,0,11,4.12h4.52L17.29,0l2.52,1c-.5,1.21-.93,2.34-1.43,3.43-.29.63-.56,1.19.21,1.66L17.27,7.51c-.7-.69-1.43-1.2-2.24-.34s-.23,1.51.3,2ZM10.59,9.25A1.15,1.15,0,0,0,11.87,8a1.23,1.23,0,0,0-1.2-1.29A1.33,1.33,0,0,0,9.36,8,1.2,1.2,0,0,0,10.59,9.25Z"/><path class="cls-1" d="M0,33.92V31.27H26.71v2.65Z"/></g></g></svg>